# Blender 4.0.2
# www.blender.org
o Fixed_1
v 20.000000 20.000000 2.000000
v 20.000000 -20.000000 2.000000
v 16.000000 20.000000 2.000000
v 16.000000 -20.000000 2.000000
v 20.000000 20.000000 -2.000000
v 20.000000 -20.000000 -2.000000
v 16.000000 20.000000 -2.000000
v 16.000000 -20.000000 -2.000000
vn -0.0000 1.0000 -0.0000
vn -1.0000 -0.0000 -0.0000
vn -0.0000 -0.0000 -1.0000
vn -0.0000 -1.0000 -0.0000
vn -0.0000 -0.0000 1.0000
vn 1.0000 -0.0000 -0.0000
s 0
f 1//1 5//1 7//1 3//1
f 4//2 3//2 7//2 8//2
f 8//3 7//3 5//3 6//3
f 6//4 2//4 4//4 8//4
f 2//5 1//5 3//5 4//5
f 6//6 5//6 1//6 2//6
o Fluid_1
v -6.000000 -15.000000 -1.000000
v -6.000000 15.000000 -1.000000
v 6.000000 -15.000000 -1.000000
v 6.000000 15.000000 -1.000000
v -6.000000 -15.000000 1.000000
v -6.000000 15.000000 1.000000
v 6.000000 -15.000000 1.000000
v 6.000000 15.000000 1.000000
vn -0.0000 -0.0000 -1.0000
vn 1.0000 -0.0000 -0.0000
vn -0.0000 -0.0000 1.0000
vn -1.0000 -0.0000 -0.0000
vn -0.0000 -1.0000 -0.0000
vn -0.0000 1.0000 -0.0000
s 0
f 9//7 10//7 12//7 11//7
f 11//8 12//8 16//8 15//8
f 15//9 16//9 14//9 13//9
f 13//10 14//10 10//10 9//10
f 11//11 15//11 13//11 9//11
f 16//12 12//12 10//12 14//12
o Fixed_3
v 20.000000 20.000000 2.000000
v 20.000000 16.000000 2.000000
v -20.000000 20.000000 2.000000
v -20.000000 16.000000 2.000000
v 20.000000 20.000000 -2.000000
v 20.000000 16.000000 -2.000000
v -20.000000 20.000000 -2.000000
v -20.000000 16.000000 -2.000000
vn -0.0000 1.0000 -0.0000
vn -1.0000 -0.0000 -0.0000
vn -0.0000 -0.0000 -1.0000
vn -0.0000 -1.0000 -0.0000
vn -0.0000 -0.0000 1.0000
vn 1.0000 -0.0000 -0.0000
s 0
f 17//13 21//13 23//13 19//13
f 20//14 19//14 23//14 24//14
f 24//15 23//15 21//15 22//15
f 22//16 18//16 20//16 24//16
f 18//17 17//17 19//17 20//17
f 22//18 21//18 17//18 18//18
o Fixed_0
v -16.000000 20.000000 2.000000
v -16.000000 -20.000000 2.000000
v -20.000000 20.000000 2.000000
v -20.000000 -20.000000 2.000000
v -16.000000 20.000000 -2.000000
v -16.000000 -20.000000 -2.000000
v -20.000000 20.000000 -2.000000
v -20.000000 -20.000000 -2.000000
vn -0.0000 1.0000 -0.0000
vn -1.0000 -0.0000 -0.0000
vn -0.0000 -0.0000 -1.0000
vn -0.0000 -1.0000 -0.0000
vn -0.0000 -0.0000 1.0000
vn 1.0000 -0.0000 -0.0000
s 0
f 25//19 29//19 31//19 27//19
f 28//20 27//20 31//20 32//20
f 32//21 31//21 29//21 30//21
f 30//22 26//22 28//22 32//22
f 26//23 25//23 27//23 28//23
f 30//24 29//24 25//24 26//24
o Fixed_2
v 20.000000 -16.000000 2.000000
v 20.000000 -20.000000 2.000000
v -20.000000 -16.000000 2.000000
v -20.000000 -20.000000 2.000000
v 20.000000 -16.000000 -2.000000
v 20.000000 -20.000000 -2.000000
v -20.000000 -16.000000 -2.000000
v -20.000000 -20.000000 -2.000000
vn -0.0000 1.0000 -0.0000
vn -1.0000 -0.0000 -0.0000
vn -0.0000 -0.0000 -1.0000
vn -0.0000 -1.0000 -0.0000
vn -0.0000 -0.0000 1.0000
vn 1.0000 -0.0000 -0.0000
s 0
f 33//25 37//25 39//25 35//25
f 36//26 35//26 39//26 40//26
f 40//27 39//27 37//27 38//27
f 38//28 34//28 36//28 40//28
f 34//29 33//29 35//29 36//29
f 38//30 37//30 33//30 34//30
